HIERARCHY
ROOT Hips
{
	OFFSET 0.00000 0.00000 0.00000
	CHANNELS 6 Xposition Yposition Zposition Zrotation Yrotation Xrotation 
	JOINT LHipJoint
	{
		OFFSET 0 0 0
		CHANNELS 3 Zrotation Yrotation Xrotation
		JOINT LeftUpLeg
		{
			OFFSET 1.85742 -1.74412 1.01653
			CHANNELS 3 Zrotation Yrotation Xrotation
			JOINT LeftLeg
			{
				OFFSET 2.54803 -7.00067 0.00000
				CHANNELS 3 Zrotation Yrotation Xrotation
				JOINT LeftFoot
				{
					OFFSET 2.51202 -6.90173 0.00000
					CHANNELS 3 Zrotation Yrotation Xrotation
					JOINT LeftToeBase
					{
						OFFSET 0.17547 -0.48209 1.64281
						CHANNELS 3 Zrotation Yrotation Xrotation
						End Site
						{
							OFFSET 0.00000 -0.00000 0.86587
						}
					}
				}
			}
		}
	}
	JOINT RHipJoint
	{
		OFFSET 0 0 0
		CHANNELS 3 Zrotation Yrotation Xrotation
		JOINT RightUpLeg
		{
			OFFSET -1.95533 -1.74413 1.01654
			CHANNELS 3 Zrotation Yrotation Xrotation
			JOINT RightLeg
			{
				OFFSET -2.49465 -6.85400 0.00000
				CHANNELS 3 Zrotation Yrotation Xrotation
				JOINT RightFoot
				{
					OFFSET -2.54783 -7.00010 0.00000
					CHANNELS 3 Zrotation Yrotation Xrotation
					JOINT RightToeBase
					{
						OFFSET -0.18513 -0.50864 1.69288
						CHANNELS 3 Zrotation Yrotation Xrotation
						End Site
						{
							OFFSET -0.00000 -0.00000 0.89242
						}
					}
				}
			}
		}
	}
	JOINT LowerBack
	{
		OFFSET 0 0 0
		CHANNELS 3 Zrotation Yrotation Xrotation
		JOINT Spine
		{
			OFFSET 0.02173 2.16290 -0.15998
			CHANNELS 3 Zrotation Yrotation Xrotation
			JOINT Spine1
			{
				OFFSET 0.00940 2.17323 -0.00467
				CHANNELS 3 Zrotation Yrotation Xrotation
				JOINT Neck
				{
					OFFSET 0 0 0
					CHANNELS 3 Zrotation Yrotation Xrotation
					JOINT Neck1
					{
						OFFSET 0.01475 1.85823 0.31113
						CHANNELS 3 Zrotation Yrotation Xrotation
						JOINT Head
						{
							OFFSET 0.01902 1.88783 -0.37187
							CHANNELS 3 Zrotation Yrotation Xrotation
							End Site
							{
								OFFSET 0.00489 1.93211 -0.16169
							}
						}
					}
				}
				JOINT LeftShoulder
				{
					OFFSET 0 0 0
					CHANNELS 3 Zrotation Yrotation Xrotation
					JOINT LeftArm
					{
						OFFSET 3.34199 1.32384 -0.07862
						CHANNELS 3 Zrotation Yrotation Xrotation
						JOINT LeftForeArm
						{
							OFFSET 5.27950 -0.00000 0.00000
							CHANNELS 3 Zrotation Yrotation Xrotation
							JOINT LeftHand
							{
								OFFSET 3.53504 -0.00000 0.00000
								CHANNELS 3 Zrotation Yrotation Xrotation
								JOINT LeftFingerBase
								{
									OFFSET 0 0 0
									CHANNELS 3 Zrotation Yrotation Xrotation
									JOINT LeftHandIndex1
									{
										OFFSET 0.66795 -0.00000 0.00000
										CHANNELS 3 Zrotation Yrotation Xrotation
										End Site
										{
											OFFSET 0.53852 -0.00000 0.00000
										}
									}
								}
								JOINT LThumb
								{
									OFFSET 0 0 0
									CHANNELS 3 Zrotation Yrotation Xrotation
									End Site
									{
										OFFSET 0.54674 -0.00000 0.54674
									}
								}
							}
						}
					}
				}
				JOINT RightShoulder
				{
					OFFSET 0 0 0
					CHANNELS 3 Zrotation Yrotation Xrotation
					JOINT RightArm
					{
						OFFSET -3.16149 1.45719 -0.50507
						CHANNELS 3 Zrotation Yrotation Xrotation
						JOINT RightForeArm
						{
							OFFSET -5.25035 -0.00000 0.00000
							CHANNELS 3 Zrotation Yrotation Xrotation
							JOINT RightHand
							{
								OFFSET -3.58884 -0.00000 0.00000
								CHANNELS 3 Zrotation Yrotation Xrotation
								JOINT RightFingerBase
								{
									OFFSET 0 0 0
									CHANNELS 3 Zrotation Yrotation Xrotation
									JOINT RightHandIndex1
									{
										OFFSET -0.77924 -0.00000 0.00000
										CHANNELS 3 Zrotation Yrotation Xrotation
										End Site
										{
											OFFSET -0.62824 -0.00000 0.00000
										}
									}
								}
								JOINT RThumb
								{
									OFFSET 0 0 0
									CHANNELS 3 Zrotation Yrotation Xrotation
									End Site
									{
										OFFSET -0.63783 -0.00000 0.63783
									}
								}
							}
						}
					}
				}
			}
		}
	}
}
MOTION
Frames: 9
Frame Time: .0083333
-11.8420 17.7919 -5.8716 -395.8720 83.1684 -357.5600 0.0000 0.0000 0.0000 6.4773 -23.7912 -51.4147 1.9885 8.8422 25.3028 0.7891 7.1598 -20.8644 1.1681 -6.8606 -19.3030 0.0000 0.0000 0.0000 10.0432 18.9010 -44.4978 -0.5766 -4.8627 13.5175 0.3039 -10.0045 -6.2189 -1.3980 7.4797 -21.1445 -5.0073 3.5171 31.6480 0.3440 3.7450 9.8744 1.8986 2.0483 -6.3490 -2.2541 -1.6902 -10.9169 1.9261 -1.8280 24.5248 0.8675 -0.6954 9.5740 -0.0000 -0.0000 0.0000 -47.8303 -41.4389 18.4465 88.8219 -59.9948 -58.9798 -0.0000 0.0000 -1.6994 74.6730 53.0074 71.0605 -7.1250 0.0000 -0.0000 161.2152 -70.8290 -168.2939 -0.0000 -0.0000 0.0000 70.4424 22.3596 46.9717 -117.1372 57.0258 -83.2668 0.0000 0.0000 2.7460 -35.8249 20.1308 -13.9525 7.1250 -0.0000 -0.0000 -4.6419 -5.7201 -4.1701
-11.8385 17.7924 -5.8654 -396.4970 83.3501 -358.2680 0.0000 0.0000 0.0000 6.4330 -23.8356 -51.3339 1.9821 8.8287 25.2609 0.7919 7.0640 -20.8178 1.1809 -6.8969 -19.4102 0.0000 0.0000 0.0000 10.0755 18.8269 -44.4520 -0.5913 -4.9230 13.6891 0.3095 -10.1231 -6.4103 -1.3625 7.3882 -20.8705 -4.9433 3.4713 31.7223 0.3752 3.7087 9.8681 1.9067 2.0331 -6.3867 -2.3268 -1.7127 -10.8786 2.1067 -1.8907 24.4594 0.9350 -0.7123 9.5476 0.0000 0.0000 0.0000 -47.8912 -41.4883 18.5094 88.8025 -59.9946 -58.9630 -0.0000 0.0000 -1.4863 74.4450 53.1567 70.8209 -7.1250 0.0000 -0.0000 161.5097 -70.9417 -168.4357 0.0000 0.0000 0.0000 70.7919 22.1963 46.6052 -117.1440 57.0242 -83.2725 0.0000 0.0000 0.6758 -36.8782 18.6269 -13.4754 7.1250 -0.0000 -0.0000 -5.5617 -7.2200 -4.8420
-11.8358 17.7911 -5.8611 -397.4070 83.5056 -359.2010 0.0000 0.0000 0.0000 6.4895 -23.9007 -51.3366 1.9803 8.8250 25.2493 0.7939 6.9817 -20.7744 1.1699 -6.8657 -19.3180 0.0000 0.0000 0.0000 10.2562 18.5958 -44.5020 -0.6019 -4.9661 13.8118 0.2975 -9.9747 -6.4976 -1.3047 7.2360 -20.4164 -4.8526 3.4058 31.7427 0.4036 3.6556 9.8456 1.9043 2.0092 -6.4162 -2.3621 -1.7482 -10.8838 2.2253 -1.9624 24.4468 0.9739 -0.7360 9.5475 -0.0000 -0.0000 0.0000 -47.9823 -41.4817 18.6039 88.9705 -59.9960 -59.1084 -0.0000 0.0000 -1.5911 74.2080 53.1684 70.5392 -7.1250 0.0000 -0.0000 161.4843 -71.0986 -168.3558 -0.0000 -0.0000 0.0000 71.1898 21.9830 46.2609 -117.2030 57.0103 -83.3220 0.0000 -0.0000 -0.9576 -38.3098 16.9235 -12.9513 7.1250 -0.0000 -0.0000 -6.7640 -8.9042 -5.6763
-11.8334 17.7890 -5.8596 -397.8790 83.5862 -359.6760 0.0000 0.0000 0.0000 6.5233 -23.9415 -51.3632 1.9836 8.8318 25.2706 0.8009 6.9540 -20.8198 1.1909 -6.9250 -19.4934 0.0000 0.0000 0.0000 10.4315 18.3671 -44.5647 -0.6071 -4.9871 13.8718 0.2833 -9.7706 -6.4878 -1.2864 7.1870 -20.2706 -4.7979 3.3663 31.7373 0.4061 3.6225 9.8290 1.8875 1.9942 -6.4284 -2.3027 -1.7916 -10.9287 2.1808 -2.0233 24.4671 0.9413 -0.7630 9.5637 0.0000 0.0000 0.0000 -48.1004 -41.6236 18.8235 89.1083 -59.9970 -59.2277 -0.0000 0.0000 -1.6733 73.5455 52.6989 69.6304 -7.1250 0.0000 -0.0000 160.1936 -71.6866 -167.2710 0.0000 0.0000 0.0000 71.5216 21.7814 45.8393 -117.5480 56.9287 -83.6113 0.0000 -0.0000 -2.1247 -36.0835 19.7864 -13.8582 7.1250 -0.0000 -0.0000 -4.8627 -6.0562 -4.3386
-11.8299 17.7856 -5.8585 -397.9250 83.6151 -359.7380 0.0000 0.0000 0.0000 6.6263 -24.0988 -51.3447 1.9908 8.8468 25.3173 0.8119 7.0788 -21.0192 1.1929 -6.9304 -19.5094 0.0000 0.0000 0.0000 10.4943 18.2818 -44.5866 -0.6111 -5.0036 13.9187 0.2814 -9.7381 -6.4648 -1.3566 7.3727 -20.8244 -4.8567 3.3425 31.7139 0.4280 3.5801 9.8342 1.9626 1.9739 -6.4125 -2.3266 -1.7948 -11.0216 2.0998 -2.0021 24.5150 0.9195 -0.7636 9.5974 -0.0000 -0.0000 0.0000 -48.2872 -41.8169 18.9257 88.9497 -59.9958 -59.0904 -0.0000 0.0000 -1.0442 73.0608 52.1585 68.9097 -7.1250 0.0000 -0.0000 158.6984 -72.1778 -166.0585 -0.0000 -0.0000 0.0000 71.4787 21.6447 46.1002 -117.0004 57.0577 -83.1520 0.0000 0.0000 2.1594 -37.2299 18.9780 -13.8804 7.1250 -0.0000 -0.0000 -5.7201 -6.7167 -5.0376
-11.8259 17.7825 -5.8571 -398.1930 83.6342 -360.0730 0.0000 0.0000 0.0000 6.6419 -24.1561 -51.2578 1.9998 8.8657 25.3763 0.8292 7.0692 -21.1738 1.1594 -6.8361 -19.2306 0.0000 0.0000 0.0000 10.5715 18.2339 -44.5357 -0.6154 -5.0206 13.9673 0.2794 -9.7127 -6.4762 -1.4104 7.5115 -21.2397 -4.9285 3.3113 31.7457 0.4749 3.5254 9.8420 2.0755 1.9481 -6.4199 -2.4611 -1.7790 -11.0523 2.0978 -1.9519 24.5346 0.9473 -0.7531 9.6106 -0.0000 0.0000 0.0000 -48.5332 -41.8437 18.8224 88.9131 -59.9955 -59.0587 -0.0000 0.0000 -0.4048 73.2668 52.3619 69.2103 -7.1250 0.0000 -0.0000 159.2778 -71.9763 -166.5375 -0.0000 0.0000 0.0000 71.1320 21.6482 46.6374 -116.0992 57.2628 -82.3949 0.0000 0.0000 6.5378 -38.3439 18.6287 -14.1802 7.1250 -0.0000 -0.0000 -6.4788 -6.8454 -5.6978
-11.8207 17.7816 -5.8564 -398.3680 83.6245 -360.3760 0.0000 0.0000 0.0000 6.3649 -23.9268 -51.1094 2.0113 8.8896 25.4506 0.8533 6.8012 -21.1992 1.1332 -6.7608 -19.0086 0.0000 0.0000 0.0000 10.6658 18.1855 -44.3989 -0.6190 -5.0352 14.0090 0.2750 -9.6618 -6.5325 -1.3770 7.4258 -20.9833 -5.0196 3.2745 31.8525 0.5129 3.4554 9.8616 2.1928 1.9161 -6.4462 -2.5253 -1.7451 -10.9673 2.0120 -1.8761 24.4163 0.9368 -0.7353 9.5506 -0.0000 -0.0000 0.0000 -48.7729 -41.6803 18.5177 89.0039 -59.9963 -59.1373 -0.0000 0.0000 -0.0830 73.4880 52.8466 69.5980 -7.1250 0.0000 -0.0000 160.5419 -71.6817 -167.5020 -0.0000 -0.0000 0.0000 70.6668 21.7184 47.6834 -115.6260 57.3671 -81.9966 0.0000 0.0000 6.6381 -38.3406 20.0217 -15.1516 7.1250 -0.0000 -0.0000 -6.2167 -5.1849 -5.6636
-11.8150 17.7821 -5.8557 -398.3230 83.5766 -360.4730 0.0000 0.0000 0.0000 6.1363 -23.7520 -50.9506 2.0256 8.9191 25.5426 0.8731 6.6304 -21.2586 1.0923 -6.6417 -18.6582 0.0000 0.0000 0.0000 10.7804 18.1334 -44.2488 -0.6232 -5.0517 14.0560 0.2698 -9.5988 -6.5760 -1.3460 7.3452 -20.7421 -5.1335 3.2387 31.9775 0.5153 3.3768 9.8912 2.2863 1.8803 -6.4665 -2.5286 -1.7064 -10.8778 1.9188 -1.8086 24.2253 0.9118 -0.7176 9.4635 0.0000 -0.0000 0.0000 -48.8485 -41.3867 18.1501 89.0161 -59.9963 -59.1479 -0.0000 -0.0000 0.2009 73.4947 53.0196 69.6486 -7.1250 0.0000 -0.0000 160.9670 -71.6249 -167.8046 0.0000 -0.0000 0.0000 70.1925 21.8318 48.9083 -115.1795 57.4633 -81.6204 0.0000 0.0000 6.1689 -38.4750 21.4793 -16.2250 7.1250 -0.0000 -0.0000 -6.0167 -3.4216 -5.6787
-11.8106 17.7821 -5.8542 -398.1800 83.5003 -360.4260 0.0000 0.0000 0.0000 5.9887 -23.5777 -50.8956 2.0426 8.9543 25.6526 0.8827 6.5064 -21.2584 1.0703 -6.5768 -18.4676 0.0000 0.0000 0.0000 10.9824 17.9981 -44.1958 -0.6275 -5.0690 14.1054 0.2551 -9.3762 -6.5473 -1.3514 7.3593 -20.7842 -5.1238 3.2302 32.0291 0.4106 3.3609 9.9203 2.1677 1.8746 -6.4482 -2.5575 -1.7749 -10.8857 2.1425 -1.9574 24.1111 0.9763 -0.7668 9.4310 -0.0000 -0.0000 0.0000 -48.6341 -41.1846 18.0097 89.1257 -59.9971 -59.2428 -0.0000 -0.0000 0.2035 73.2289 53.2004 69.3755 -7.1250 0.0000 -0.0000 161.3506 -71.7489 -168.0052 -0.0000 -0.0000 0.0000 69.8769 21.8560 49.9376 -114.7689 57.5500 -81.2740 0.0000 0.0000 6.0597 -38.9748 22.8040 -17.4101 7.1250 -0.0000 -0.0000 -6.0491 -1.7127 -5.8989
